<mxfile host="app.diagrams.net" modified="2023-03-31T03:04:54.132Z" agent="Mozilla/5.0 (Windows NT 10.0; Win64; x64) AppleWebKit/537.36 (KHTML, like Gecko) Chrome/111.0.0.0 Safari/537.36" version="21.1.1" etag="8IkXooJdD5DgnN5tQKCX" type="github">
  <diagram name="第 1 页" id="px3IFsI_q06TYeAnsc06">
    <mxGraphModel>
      <root>
        <mxCell id="0" />
        <mxCell id="1" parent="0" />
      </root>
    </mxGraphModel>
  </diagram>
</mxfile>
